<svg version="1.1" xmlns="http://www.w3.org/2000/svg" xmlns:xlink="http://www.w3.org/1999/xlink" width="16" height="16" viewBox="0,0,16,16">
	<desc>vpn_key icon - Licensed under Apache License v2.0 (http://www.apache.org/licenses/LICENSE-2.0) - Created with Iconfu.com - Derivative work of Material icons (Copyright Google Inc.)</desc>
	<g fill="none" fill-rule="nonzero" style="mix-blend-mode: normal">
		<path d="M13.35,16h-10.69c-1.47,0 -2.65,-1.19 -2.65,-2.65v-10.69c0,-1.47 1.19,-2.65 2.65,-2.65h10.69c1.47,0 2.65,1.19 2.65,2.65v10.69c0,1.47 -1.19,2.65 -2.65,2.65z" fill="#03b8e5"/>
		<path d="M5.9,8.1c-0.03,-0.03 -0.04,-0.06 -0.04,-0.1c0,-0.08 0.07,-0.15 0.15,-0.15c0.04,0 0.08,0.02 0.1,0.04l2.15,2.15c0.16,-0.18 0.31,-0.38 0.42,-0.6h0.66l1.6,1.6h0.65c0.36,0 0.65,-0.29 0.65,-0.65v-0.28l-3.56,-3.56c-0.14,-0.26 -0.32,-0.5 -0.53,-0.71l4.09,4.09v-0.48h0.15c0.36,0 0.65,-0.29 0.65,-0.65v-1.6c0,-0.18 -0.07,-0.34 -0.19,-0.46l3.15,3.15v3.45c0,1.47 -1.19,2.65 -2.65,2.65h-3.65l-5.85,-5.85c0.55,0.55 1.31,0.89 2.15,0.89c0.79,0 1.51,-0.3 2.05,-0.79z" fill="#0085b2"/>
		<path d="M13.04,7.2v1.6c0,0.36 -0.29,0.65 -0.65,0.65h-0.15v0.94c0,0.36 -0.29,0.65 -0.65,0.65h-1.6c-0.36,0 -0.65,-0.29 -0.65,-0.65v-0.94h-0.66c-0.51,0.95 -1.52,1.6 -2.68,1.6c-1.68,0 -3.05,-1.37 -3.05,-3.05c0,-1.68 1.37,-3.05 3.05,-3.05c1.16,0 2.16,0.65 2.68,1.6h3.71c0.36,0 0.65,0.29 0.65,0.65zM6.15,8c0,-0.08 -0.07,-0.15 -0.15,-0.15c-0.08,0 -0.15,0.07 -0.15,0.15c0,0.08 0.07,0.15 0.15,0.15c0.08,0 0.15,-0.07 0.15,-0.15z" fill="#333333"/>
		<path d="M12.39,7.2v1.6h-0.8v1.6h-1.6v-1.6h-1.74c-0.33,0.93 -1.21,1.6 -2.25,1.6c-1.32,0 -2.39,-1.07 -2.39,-2.39c0,-1.32 1.07,-2.39 2.39,-2.39c1.04,0 1.93,0.67 2.25,1.6zM6.8,8c0,-0.44 -0.36,-0.8 -0.8,-0.8c-0.44,0 -0.8,0.36 -0.8,0.8c0,0.44 0.36,0.8 0.8,0.8c0.44,0 0.8,-0.36 0.8,-0.8z" fill="#ffffff"/>
	</g>
</svg>